<?xml version="1.0" standalone="no"?>
<!DOCTYPE svg PUBLIC "-//W3C//DTD SVG 20010904//EN"
 "http://www.w3.org/TR/2001/REC-SVG-20010904/DTD/svg10.dtd">
<svg version="1.0" xmlns="http://www.w3.org/2000/svg"
 width="499.000000pt" height="499.000000pt" viewBox="0 0 499.000000 499.000000"
 preserveAspectRatio="xMidYMid meet">

<g transform="translate(0.000000,499.000000) scale(0.100000,-0.100000)"
fill="#000000" stroke="none">
<path d="M1574 4460 c-27 -10 -62 -59 -75 -103 -16 -53 -12 -230 7 -318 l17
-80 -104 -107 c-58 -59 -124 -129 -147 -157 l-42 -50 2 54 c3 53 4 55 36 63
40 11 72 59 72 110 0 51 -40 98 -84 98 -50 0 -79 -37 -84 -109 -4 -51 -1 -62
18 -81 20 -20 23 -32 21 -97 -2 -70 -5 -79 -48 -145 -52 -80 -144 -255 -162
-307 -16 -49 -27 -31 -46 82 l-16 98 30 30 c52 52 40 128 -23 149 -57 18 -96
-14 -96 -80 0 -41 16 -69 45 -80 18 -7 25 -19 30 -47 3 -21 14 -82 24 -135
l20 -98 -25 -77 c-31 -98 -72 -296 -81 -385 -3 -38 -8 -67 -10 -65 -2 2 -14
66 -28 143 -13 76 -36 189 -50 249 -24 103 -112 406 -120 413 -35 35 -32 -346
4 -553 40 -227 96 -416 178 -600 39 -86 78 -213 69 -223 -2 -1 -41 68 -88 155
-159 295 -457 783 -479 783 -13 0 -12 -1 20 -135 75 -306 216 -600 399 -830
31 -38 101 -117 158 -175 86 -89 110 -121 153 -206 28 -55 51 -104 51 -108 0
-4 -27 15 -59 43 -131 108 -346 224 -535 286 -129 43 -166 50 -166 35 0 -21
158 -175 238 -233 153 -109 329 -189 519 -236 l93 -23 51 -65 c28 -36 49 -67
46 -69 -3 -3 -31 2 -63 10 -112 28 -220 39 -364 38 -161 -2 -252 -11 -257 -28
-4 -13 174 -69 292 -90 52 -9 175 -18 289 -21 l200 -6 63 -61 64 -61 -203 0
c-150 -1 -228 -5 -298 -18 -119 -22 -173 -38 -163 -48 11 -11 210 -37 339 -45
116 -7 247 5 346 33 l58 16 72 -50 c107 -73 148 -96 148 -84 0 6 -39 36 -87
67 -49 31 -101 67 -116 80 l-29 24 -3 327 c-3 296 -17 558 -30 571 -3 3 -7 3
-10 1 -12 -13 -56 -203 -66 -292 -14 -120 -6 -347 16 -456 8 -41 13 -76 12
-78 -2 -1 -29 20 -59 47 l-56 50 5 243 c4 146 1 315 -6 427 -14 204 -50 461
-66 461 -14 0 -32 -121 -45 -317 -13 -187 -4 -397 25 -592 9 -57 15 -111 13
-119 -3 -17 -112 125 -170 222 l-36 60 69 545 c38 300 69 553 69 563 1 93
-117 -192 -167 -402 -26 -110 -28 -129 -28 -360 l0 -243 -28 63 c-39 85 -47
145 -47 345 0 271 56 533 157 734 l38 74 75 26 c41 14 91 34 111 46 35 21 36
21 58 3 39 -32 83 -23 106 22 23 43 18 77 -14 110 -35 34 -59 36 -95 8 -20
-16 -26 -29 -26 -60 0 -36 -4 -42 -45 -68 -46 -29 -131 -58 -141 -48 -15 14
161 249 253 339 l48 48 114 -35 c63 -19 137 -38 165 -41 107 -13 166 46 96 96
-24 17 -28 25 -20 40 15 28 12 97 -5 130 -8 16 -30 41 -49 55 -19 15 -41 44
-51 70 -20 53 -44 69 -101 66 -29 -1 -44 4 -48 14 -3 9 -18 15 -39 15 -40 0
-73 -31 -87 -81 -12 -41 -12 -195 0 -264 l8 -50 -47 -50 c-126 -131 -238 -288
-307 -428 -21 -43 -41 -77 -45 -77 -11 0 -19 42 -19 102 0 53 2 57 29 66 67
23 82 122 26 169 -35 31 -58 29 -89 -8 -34 -40 -37 -116 -6 -144 16 -14 20
-31 20 -76 0 -32 5 -80 11 -106 11 -45 9 -59 -21 -153 -57 -184 -71 -276 -77
-500 -5 -194 -7 -203 -20 -165 -27 76 -62 260 -74 390 -24 268 28 588 140 857
29 70 36 78 74 93 23 9 68 34 99 55 50 33 63 37 98 33 33 -5 45 -2 65 17 50
47 17 140 -48 140 -57 -1 -93 -47 -82 -108 5 -35 4 -38 -37 -63 -58 -36 -109
-61 -114 -57 -5 6 52 112 104 193 71 111 162 223 263 323 73 73 98 92 114 87
178 -53 340 -73 437 -52 48 10 95 50 103 87 9 39 -19 96 -55 112 -26 11 -28
17 -32 80 -3 58 -8 72 -33 99 -17 17 -50 40 -75 51 -25 10 -64 40 -87 65 -32
35 -47 44 -63 39 -11 -3 -29 -9 -40 -12 -14 -4 -20 -2 -20 9 0 21 -48 57 -74
56 -11 0 -31 -4 -42 -9z m72 -18 c17 -11 31 -43 37 -87 6 -37 4 -41 -26 -55
-41 -20 -61 -56 -90 -165 l-24 -90 -18 35 c-25 48 -25 227 0 288 26 65 83 100
121 74z m159 -86 c22 -28 51 -50 73 -57 81 -26 112 -67 112 -144 0 -49 -4 -53
-38 -29 -16 11 -21 22 -17 35 4 12 -2 27 -19 44 -20 20 -35 25 -76 25 -53 0
-50 -2 -110 74 -36 46 -36 50 -10 76 29 29 45 25 85 -24z m-55 -106 c34 -36
41 -40 87 -40 54 0 89 -24 77 -53 -3 -9 4 -34 17 -56 21 -38 21 -41 5 -65 -11
-18 -36 -31 -84 -45 -82 -24 -217 -37 -206 -20 5 9 -3 10 -30 5 -20 -4 -36 -5
-36 -2 0 3 15 20 33 38 18 18 21 24 7 12 -68 -54 -64 -54 -57 1 13 89 49 206
74 236 35 41 68 38 113 -11z m281 -186 c64 -32 59 -117 -9 -150 -42 -21 -184
-25 -267 -9 l-50 9 60 7 60 6 -72 1 c-87 2 -111 22 -26 22 64 0 140 18 191 44
34 17 57 58 47 83 -5 16 20 11 66 -13z m-742 -146 c5 -18 10 -25 10 -15 1 10
6 15 11 12 18 -11 11 -81 -10 -106 -10 -13 -19 -19 -20 -12 0 6 5 15 10 18 6
3 10 16 9 28 0 14 -2 16 -6 7 -12 -39 -28 -60 -40 -56 -7 3 -13 1 -13 -5 0
-20 -20 3 -21 24 -1 20 -2 20 -8 -3 -6 -22 -8 -23 -14 -7 -10 27 -8 89 3 107
8 12 10 10 11 -10 1 -27 4 -22 13 23 5 20 12 27 31 27 19 0 27 -7 34 -32z
m322 -225 c11 -31 6 -53 -14 -53 -7 0 -24 -11 -37 -25 -13 -14 -26 -22 -29
-19 -3 3 -11 -16 -18 -43 l-11 -48 -1 61 c-1 59 12 116 32 142 5 6 23 12 38
12 23 0 32 -6 40 -27z m94 -3 c17 -6 32 -25 45 -55 10 -24 40 -64 65 -88 41
-40 45 -48 45 -90 0 -26 -4 -47 -10 -47 -16 0 -35 43 -35 79 0 35 -11 46 -57
56 -19 4 -34 18 -48 46 -12 22 -32 45 -45 51 -29 13 -33 44 -7 51 9 3 18 5 19
6 1 0 13 -3 28 -9z m-33 -77 c9 -10 23 -32 32 -49 11 -23 26 -34 53 -41 34 -8
38 -12 36 -38 -1 -16 7 -44 18 -61 22 -36 15 -66 -17 -78 -21 -8 -235 5 -229
14 2 4 -7 12 -21 19 -23 10 -25 15 -19 59 10 74 25 136 38 153 30 39 84 50
109 22z m-727 -60 c9 -16 14 -20 11 -10 -4 12 -2 17 6 15 16 -5 23 -67 10 -80
-6 -6 -8 1 -6 19 2 19 0 17 -7 -9 -6 -21 -14 -38 -19 -38 -4 0 -12 19 -18 43
l-11 42 5 -45 c5 -42 4 -44 -11 -26 -11 14 -15 16 -15 5 0 -12 -2 -12 -10 1
-5 8 -9 26 -9 40 l1 25 8 -25 c7 -21 8 -18 10 20 1 35 3 40 10 25 8 -19 9 -19
9 3 1 30 17 28 36 -5z m369 -19 c22 -9 20 -22 -10 -61 -14 -18 -23 -33 -20
-33 3 0 19 19 36 41 25 35 31 39 36 24 5 -13 -2 -26 -24 -47 -18 -15 -29 -28
-25 -28 4 0 17 10 30 22 18 17 23 18 23 6 0 -42 -55 -47 -98 -10 -27 24 -28
46 -2 72 21 21 29 23 54 14z m586 -230 c0 -8 -12 -19 -27 -25 -33 -13 -116 -6
-121 10 -2 6 -13 11 -25 12 -12 0 -40 6 -62 14 -39 13 -37 13 52 12 75 -2 95
1 109 15 16 16 19 16 46 -3 15 -11 28 -27 28 -35z m-1230 -24 c26 42 157 -550
165 -744 3 -48 9 -102 14 -120 12 -40 20 -149 10 -139 -12 12 -78 188 -110
293 -38 125 -76 319 -89 456 -10 105 -12 314 -3 265 4 -18 7 -21 13 -11z m448
-191 c4 -39 -14 -109 -28 -109 -6 0 -11 15 -11 33 l-2 32 -6 -34 c-5 -31 -7
-33 -20 -17 -17 20 -17 71 0 103 16 31 27 29 32 -4 4 -25 4 -25 6 5 1 44 25
37 29 -9z m382 16 c10 -13 9 -19 -6 -38 -19 -22 -19 -22 2 -4 11 9 24 14 27
10 14 -14 6 -33 -20 -48 -23 -13 -24 -15 -5 -10 12 4 22 2 22 -2 0 -16 -24
-33 -46 -33 -27 0 -43 20 -17 21 17 1 17 2 1 6 -10 2 -18 7 -18 10 0 3 8 12
18 20 15 13 15 13 -5 4 -36 -18 -38 -13 -7 21 16 18 20 25 8 15 -11 -9 -24
-17 -27 -17 -13 0 -7 23 10 42 20 22 46 23 63 3z m-350 -61 c0 -19 -8 -38 -22
-50 -21 -19 -21 -19 -14 1 5 11 11 40 13 63 6 49 23 39 23 -14z m-565 -469
c181 -302 370 -655 362 -678 -2 -7 3 -23 13 -37 51 -76 23 -60 -66 38 -158
174 -253 312 -353 513 -78 157 -181 453 -151 434 7 -4 7 2 0 20 -6 15 -10 29
-10 33 0 10 87 -127 205 -323z m627 -32 c-6 -26 -8 -60 -5 -75 3 -15 -2 -80
-11 -145 -9 -65 -28 -212 -42 -328 -14 -115 -30 -228 -34 -250 l-8 -40 -2 35
-3 35 -6 -35 c-7 -34 -7 -34 -16 20 -11 77 -9 299 5 399 15 109 52 253 91 358
35 91 47 102 31 26z m168 -635 c11 -165 14 -549 4 -621 -13 -91 -24 -33 -26
131 -2 160 -2 162 -7 57 l-6 -110 -13 80 c-23 144 -34 346 -27 505 8 196 18
238 26 105 l5 -100 3 130 3 130 14 -79 c7 -44 18 -146 24 -228z m-825 -73
c132 -47 277 -121 393 -199 98 -65 207 -155 198 -163 -2 -2 -27 7 -55 21 -28
14 -54 26 -58 26 -4 -1 26 -19 67 -40 69 -37 72 -39 35 -34 -57 10 -176 49
-270 91 -142 62 -278 153 -382 255 -91 89 -77 97 72 43z m1019 -435 c4 -228 3
-315 -4 -292 -14 41 -21 41 -13 0 4 -23 2 -30 -5 -23 -37 35 -64 390 -42 562
13 108 21 130 31 93 5 -18 8 -8 9 35 l3 60 8 -55 c4 -30 10 -201 13 -380z
m-464 -110 c104 -16 198 -41 211 -56 6 -8 20 -14 30 -14 11 0 19 -5 19 -11 0
-9 -50 -10 -182 -6 -187 5 -328 24 -428 58 l-55 18 55 -4 55 -4 -45 12 -45 11
55 7 c65 8 239 2 330 -11z m425 -259 l40 -9 -35 -2 -35 -3 35 -6 35 -7 -40
-12 c-80 -24 -209 -35 -330 -28 -183 10 -201 20 -45 26 l135 6 -154 2 c-85 1
-152 5 -148 8 25 25 446 44 542 25z"/>
<path d="M1570 4329 c-7 -11 -10 -23 -7 -25 2 -2 9 7 15 21 14 30 7 33 -8 4z"/>
<path d="M1541 4244 c0 -11 3 -14 6 -6 3 7 2 16 -1 19 -3 4 -6 -2 -5 -13z"/>
<path d="M1532 4180 c0 -19 2 -27 5 -17 2 9 2 25 0 35 -3 9 -5 1 -5 -18z"/>
<path d="M1700 4140 c-11 -22 -18 -40 -15 -40 2 0 14 18 25 40 11 22 18 40 15
40 -2 0 -14 -18 -25 -40z"/>
<path d="M1659 4073 c-13 -16 -12 -17 4 -4 9 7 17 15 17 17 0 8 -8 3 -21 -13z"/>
<path d="M1754 4038 l-19 -23 23 19 c21 18 27 26 19 26 -2 0 -12 -10 -23 -22z"/>
<path d="M1690 4000 c-19 -11 -31 -19 -27 -20 11 0 67 29 67 35 0 7 -1 7 -40
-15z"/>
<path d="M1938 3953 c7 -3 16 -2 19 1 4 3 -2 6 -13 5 -11 0 -14 -3 -6 -6z"/>
<path d="M1848 3933 c6 -2 18 -2 25 0 6 3 1 5 -13 5 -14 0 -19 -2 -12 -5z"/>
<path d="M1251 3924 c0 -11 3 -14 6 -6 3 7 2 16 -1 19 -3 4 -6 -2 -5 -13z"/>
<path d="M1251 3824 c0 -11 3 -14 6 -6 3 7 2 16 -1 19 -3 4 -6 -2 -5 -13z"/>
<path d="M1645 3462 c-22 -20 -53 -48 -70 -60 -17 -14 -21 -19 -8 -13 21 11
133 110 123 110 -3 0 -23 -16 -45 -37z"/>
<path d="M1552 3429 c-12 -21 -21 -39 -18 -39 7 0 49 71 44 75 -2 2 -14 -14
-26 -36z"/>
<path d="M1698 3413 c6 -2 18 -2 25 0 6 3 1 5 -13 5 -14 0 -19 -2 -12 -5z"/>
<path d="M1590 3380 c-8 -5 -10 -10 -5 -10 6 0 17 5 25 10 8 5 11 10 5 10 -5
0 -17 -5 -25 -10z"/>
<path d="M1284 3508 l-19 -23 23 19 c21 18 27 26 19 26 -2 0 -12 -10 -23 -22z"/>
<path d="M1798 3293 c6 -2 18 -2 25 0 6 3 1 5 -13 5 -14 0 -19 -2 -12 -5z"/>
<path d="M672 3220 c0 -14 2 -19 5 -12 2 6 2 18 0 25 -3 6 -5 1 -5 -13z"/>
<path d="M682 3155 c0 -16 2 -22 5 -12 2 9 2 23 0 30 -3 6 -5 -1 -5 -18z"/>
<path d="M692 3095 c0 -16 2 -22 5 -12 2 9 2 23 0 30 -3 6 -5 -1 -5 -18z"/>
<path d="M702 3035 c0 -16 2 -22 5 -12 2 9 2 23 0 30 -3 6 -5 -1 -5 -18z"/>
<path d="M712 2980 c0 -14 2 -19 5 -12 2 6 2 18 0 25 -3 6 -5 1 -5 -13z"/>
<path d="M721 2934 c0 -11 3 -14 6 -6 3 7 2 16 -1 19 -3 4 -6 -2 -5 -13z"/>
<path d="M732 2880 c0 -14 2 -19 5 -12 2 6 2 18 0 25 -3 6 -5 1 -5 -13z"/>
<path d="M741 2834 c0 -11 3 -14 6 -6 3 7 2 16 -1 19 -3 4 -6 -2 -5 -13z"/>
<path d="M752 2790 c0 -14 2 -19 5 -12 2 6 2 18 0 25 -3 6 -5 1 -5 -13z"/>
<path d="M761 2744 c0 -11 3 -14 6 -6 3 7 2 16 -1 19 -3 4 -6 -2 -5 -13z"/>
<path d="M771 2704 c0 -11 3 -14 6 -6 3 7 2 16 -1 19 -3 4 -6 -2 -5 -13z"/>
<path d="M781 2664 c0 -11 3 -14 6 -6 3 7 2 16 -1 19 -3 4 -6 -2 -5 -13z"/>
<path d="M791 2624 c0 -11 3 -14 6 -6 3 7 2 16 -1 19 -3 4 -6 -2 -5 -13z"/>
<path d="M801 2584 c0 -11 3 -14 6 -6 3 7 2 16 -1 19 -3 4 -6 -2 -5 -13z"/>
<path d="M811 2544 c0 -11 3 -14 6 -6 3 7 2 16 -1 19 -3 4 -6 -2 -5 -13z"/>
<path d="M401 2825 c0 -5 6 -21 14 -35 8 -14 14 -20 14 -15 0 6 -6 21 -14 35
-8 14 -14 21 -14 15z"/>
<path d="M431 2755 c0 -5 6 -21 14 -35 8 -14 14 -20 14 -15 0 6 -6 21 -14 35
-8 14 -14 21 -14 15z"/>
<path d="M471 2670 c14 -31 19 -36 19 -24 0 6 -7 19 -16 30 -14 18 -14 18 -3
-6z"/>
<path d="M560 2490 c22 -44 42 -80 45 -80 3 0 -13 36 -35 80 -22 44 -42 80
-45 80 -3 0 13 -36 35 -80z"/>
<path d="M620 2380 c6 -11 13 -20 16 -20 2 0 0 9 -6 20 -6 11 -13 20 -16 20
-2 0 0 -9 6 -20z"/>
<path d="M660 2310 c6 -11 13 -20 16 -20 2 0 0 9 -6 20 -6 11 -13 20 -16 20
-2 0 0 -9 6 -20z"/>
<path d="M690 2260 c6 -11 13 -20 16 -20 2 0 0 9 -6 20 -6 11 -13 20 -16 20
-2 0 0 -9 6 -20z"/>
<path d="M731 2193 c12 -21 29 -45 37 -53 7 -8 0 9 -18 38 -17 28 -34 52 -37
52 -2 0 5 -17 18 -37z"/>
<path d="M790 2101 c5 -11 15 -23 21 -27 6 -3 3 5 -6 20 -20 30 -30 35 -15 7z"/>
<path d="M869 1988 c28 -42 56 -80 62 -84 13 -8 -75 121 -99 146 -8 8 8 -20
37 -62z"/>
<path d="M1192 2450 c0 -14 2 -19 5 -12 2 6 2 18 0 25 -3 6 -5 1 -5 -13z"/>
<path d="M1175 2375 c-3 -26 -4 -49 -2 -51 3 -3 8 16 12 41 3 26 4 49 2 51 -3
3 -8 -16 -12 -41z"/>
<path d="M1162 2285 c0 -16 2 -22 5 -12 2 9 2 23 0 30 -3 6 -5 -1 -5 -18z"/>
<path d="M1152 2220 c0 -14 2 -19 5 -12 2 6 2 18 0 25 -3 6 -5 1 -5 -13z"/>
<path d="M1142 2150 c0 -14 2 -19 5 -12 2 6 2 18 0 25 -3 6 -5 1 -5 -13z"/>
<path d="M1133 2075 c0 -22 2 -30 4 -17 2 12 2 30 0 40 -3 9 -5 -1 -4 -23z"/>
<path d="M1123 1980 c0 -25 2 -35 4 -22 2 12 2 32 0 45 -2 12 -4 2 -4 -23z"/>
<path d="M1113 1875 c0 -27 2 -38 4 -22 2 15 2 37 0 50 -2 12 -4 0 -4 -28z"/>
<path d="M1344 1775 c0 -77 2 -107 3 -67 2 40 2 103 0 140 -2 37 -3 4 -3 -73z"/>
<path d="M430 1856 c0 -2 7 -7 16 -10 8 -3 12 -2 9 4 -6 10 -25 14 -25 6z"/>
<path d="M530 1796 c0 -3 9 -10 20 -16 11 -6 20 -8 20 -6 0 3 -9 10 -20 16
-11 6 -20 8 -20 6z"/>
<path d="M595 1755 c11 -9 29 -21 40 -26 l20 -10 -20 16 c-11 9 -29 21 -40 26
l-20 10 20 -16z"/>
<path d="M660 1716 c0 -3 14 -12 30 -21 17 -9 30 -13 30 -11 0 3 -13 12 -30
21 -16 9 -30 13 -30 11z"/>
<path d="M730 1675 c0 -2 18 -14 40 -25 22 -11 40 -18 40 -15 0 2 -18 14 -40
25 -22 11 -40 18 -40 15z"/>
<path d="M820 1625 c0 -3 41 -25 90 -50 50 -25 90 -43 90 -40 0 3 -40 25 -90
50 -49 25 -90 43 -90 40z"/>
<path d="M1544 1550 c0 -63 1 -89 3 -57 2 31 2 83 0 115 -2 31 -3 5 -3 -58z"/>
<path d="M1554 1260 c0 -63 1 -89 3 -57 2 31 2 83 0 115 -2 31 -3 5 -3 -58z"/>
<path d="M848 1263 c6 -2 18 -2 25 0 6 3 1 5 -13 5 -14 0 -19 -2 -12 -5z"/>
<path d="M923 1253 c9 -2 23 -2 30 0 6 3 -1 5 -18 5 -16 0 -22 -2 -12 -5z"/>
<path d="M1018 1243 c12 -2 32 -2 45 0 12 2 2 4 -23 4 -25 0 -35 -2 -22 -4z"/>
<path d="M1143 1233 c26 -2 67 -2 90 0 23 2 2 3 -48 3 -49 0 -68 -1 -42 -3z"/>
<path d="M1398 1003 c17 -2 47 -2 65 0 17 2 3 4 -33 4 -36 0 -50 -2 -32 -4z"/>
<path d="M2638 4433 c18 -2 45 -2 60 0 15 2 0 4 -33 4 -33 0 -45 -2 -27 -4z"/>
<path d="M2478 4423 c12 -2 30 -2 40 0 9 3 -1 5 -23 4 -22 0 -30 -2 -17 -4z"/>
<path d="M2808 4423 c12 -2 30 -2 40 0 9 3 -1 5 -23 4 -22 0 -30 -2 -17 -4z"/>
<path d="M2403 4413 c9 -2 23 -2 30 0 6 3 -1 5 -18 5 -16 0 -22 -2 -12 -5z"/>
<path d="M2903 4413 c9 -2 23 -2 30 0 6 3 -1 5 -18 5 -16 0 -22 -2 -12 -5z"/>
<path d="M2333 4403 c9 -2 23 -2 30 0 6 3 -1 5 -18 5 -16 0 -22 -2 -12 -5z"/>
<path d="M2968 4403 c6 -2 18 -2 25 0 6 3 1 5 -13 5 -14 0 -19 -2 -12 -5z"/>
<path d="M2278 4393 c6 -2 18 -2 25 0 6 3 1 5 -13 5 -14 0 -19 -2 -12 -5z"/>
<path d="M3023 4393 c9 -2 23 -2 30 0 6 3 -1 5 -18 5 -16 0 -22 -2 -12 -5z"/>
<path d="M2238 4383 c7 -3 16 -2 19 1 4 3 -2 6 -13 5 -11 0 -14 -3 -6 -6z"/>
<path d="M2640 4384 c-164 -12 -470 -73 -470 -95 0 -12 6 -12 85 11 215 62
535 82 760 46 465 -73 851 -293 1114 -633 36 -46 66 -83 69 -83 5 0 0 7 -49
70 -20 25 -39 52 -44 60 -21 36 30 -18 90 -95 193 -247 306 -492 372 -800 25
-120 27 -147 27 -355 0 -205 -3 -237 -27 -355 -37 -178 -84 -314 -167 -480
-291 -583 -861 -963 -1521 -1017 -269 -22 -575 25 -827 127 -55 22 -49 30 8
10 24 -8 45 -13 47 -11 2 2 -23 13 -57 24 -53 18 -62 19 -67 6 -7 -19 -10 -16
67 -47 188 -74 350 -111 557 -128 598 -51 1214 217 1600 696 184 228 325 536
384 840 20 104 24 149 23 340 0 201 -3 231 -28 350 -98 465 -342 858 -705
1134 -149 113 -442 282 -531 305 l-25 7 25 -16 c18 -12 20 -15 5 -10 -228 73
-512 112 -715 99z"/>
<path d="M3078 4383 c7 -3 16 -2 19 1 4 3 -2 6 -13 5 -11 0 -14 -3 -6 -6z"/>
<path d="M3118 4373 c7 -3 16 -2 19 1 4 3 -2 6 -13 5 -11 0 -14 -3 -6 -6z"/>
<path d="M2146 4361 c-4 -5 3 -7 14 -4 23 6 26 13 6 13 -8 0 -17 -4 -20 -9z"/>
<path d="M3195 4350 c11 -5 27 -9 35 -9 9 0 8 4 -5 9 -11 5 -27 9 -35 9 -9 0
-8 -4 5 -9z"/>
<path d="M4250 3540 c6 -11 13 -20 16 -20 2 0 0 9 -6 20 -6 11 -13 20 -16 20
-2 0 0 -9 6 -20z"/>
<path d="M4285 3480 c9 -16 18 -30 21 -30 2 0 -2 14 -11 30 -9 17 -18 30 -21
30 -2 0 2 -13 11 -30z"/>
<path d="M2656 3401 c-24 -26 -35 -29 -111 -33 -100 -7 -154 -30 -233 -103
-87 -79 -104 -144 -53 -196 22 -21 39 -29 65 -29 36 0 49 16 22 26 -22 8 -39
61 -33 100 13 79 103 151 202 161 65 7 67 2 25 -64 -49 -77 -70 -147 -86 -292
-19 -167 -27 -202 -60 -241 -21 -24 -33 -30 -66 -30 -80 0 -130 92 -91 167 19
36 34 47 93 71 21 9 17 11 -30 11 -84 1 -120 -37 -120 -126 1 -65 30 -127 72
-149 49 -26 118 -22 172 10 85 50 128 152 141 336 13 174 37 242 119 344 35
43 42 56 30 60 -24 9 -29 8 -58 -23z"/>
<path d="M2900 3375 c-57 -126 -130 -201 -240 -247 -28 -11 -50 -26 -50 -32 2
-79 22 -204 40 -243 52 -118 162 -174 252 -127 l32 16 -49 19 c-75 29 -82 39
-54 88 26 46 74 83 138 106 44 15 93 20 103 9 4 -3 -11 -34 -33 -68 -42 -68
-73 -170 -84 -281 -19 -196 -36 -248 -87 -270 -69 -28 -138 23 -138 102 0 75
42 123 108 123 21 0 24 2 12 10 -8 5 -34 10 -57 10 -33 0 -50 -7 -74 -28 -27
-24 -33 -37 -37 -85 -5 -64 23 -137 63 -163 65 -42 156 -24 224 44 60 60 86
145 101 327 13 151 34 209 112 309 44 57 46 62 27 70 -15 7 -26 3 -52 -21 -28
-27 -41 -31 -112 -37 -97 -8 -162 -36 -235 -105 l-52 -49 -28 40 c-32 43 -45
78 -59 151 l-8 47 63 30 c155 75 242 195 204 285 -7 17 -11 13 -30 -30z"/>
<path d="M4370 3315 c0 -5 5 -17 10 -25 5 -8 10 -10 10 -5 0 6 -5 17 -10 25
-5 8 -10 11 -10 5z"/>
<path d="M4390 3265 c0 -5 5 -17 10 -25 5 -8 10 -10 10 -5 0 6 -5 17 -10 25
-5 8 -10 11 -10 5z"/>
<path d="M4427 3170 c3 -14 12 -41 20 -60 11 -30 12 -31 8 -6 -4 16 -13 43
-20 60 -11 23 -13 25 -8 6z"/>
<path d="M4461 3054 c0 -11 3 -14 6 -6 3 7 2 16 -1 19 -3 4 -6 -2 -5 -13z"/>
<path d="M3377 2969 c-57 -117 -144 -195 -257 -232 -13 -4 -15 -19 -9 -98 9
-116 36 -193 86 -241 71 -68 120 -81 193 -52 42 17 45 34 6 34 -30 0 -104 48
-140 91 -39 46 -84 144 -92 199 l-6 45 69 34 c137 67 203 144 203 237 0 29 -3
55 -7 57 -5 2 -25 -31 -46 -74z"/>
<path d="M4481 2974 c0 -11 3 -14 6 -6 3 7 2 16 -1 19 -3 4 -6 -2 -5 -13z"/>
<path d="M4492 2930 c0 -14 2 -19 5 -12 2 6 2 18 0 25 -3 6 -5 1 -5 -13z"/>
<path d="M4502 2880 c0 -14 3 -45 7 -70 6 -34 9 -37 9 -15 1 17 -3 48 -7 70
-6 25 -9 31 -9 15z"/>
<path d="M4523 2695 c0 -27 2 -38 4 -22 2 15 2 37 0 50 -2 12 -4 0 -4 -28z"/>
<path d="M4523 2435 c0 -27 2 -38 4 -22 2 15 2 37 0 50 -2 12 -4 0 -4 -28z"/>
<path d="M4512 2330 c0 -19 2 -27 5 -17 2 9 2 25 0 35 -3 9 -5 1 -5 -18z"/>
<path d="M4502 2260 c0 -19 2 -27 5 -17 2 9 2 25 0 35 -3 9 -5 1 -5 -18z"/>
<path d="M1638 2115 c3 -92 6 -115 18 -115 10 0 14 12 14 40 0 22 5 40 10 40
6 0 30 -18 54 -40 40 -37 76 -52 76 -31 0 5 -22 26 -50 47 -27 21 -50 39 -50
40 0 2 18 13 40 25 22 13 40 26 40 31 0 16 -23 8 -60 -22 -21 -16 -43 -30 -49
-30 -7 0 -11 24 -11 65 0 55 -3 65 -17 65 -16 0 -18 -11 -15 -115z"/>
<path d="M2298 2115 c3 -92 6 -115 18 -115 11 0 14 22 14 115 0 103 -2 115
-17 115 -16 0 -18 -11 -15 -115z"/>
<path d="M2780 2115 c0 -96 3 -115 15 -115 11 0 15 11 15 40 0 23 5 40 11 40
6 0 33 -18 59 -40 71 -59 99 -52 32 9 l-54 47 44 29 c32 22 39 30 26 33 -10 2
-35 -10 -55 -27 -55 -46 -63 -42 -63 34 0 51 -3 65 -15 65 -12 0 -15 -19 -15
-115z"/>
<path d="M2230 2205 c0 -8 9 -15 20 -15 11 0 20 7 20 15 0 8 -9 15 -20 15 -11
0 -20 -7 -20 -15z"/>
<path d="M4491 2204 c0 -11 3 -14 6 -6 3 7 2 16 -1 19 -3 4 -6 -2 -5 -13z"/>
<path d="M4481 2154 c0 -11 3 -14 6 -6 3 7 2 16 -1 19 -3 4 -6 -2 -5 -13z"/>
<path d="M1825 2150 c-4 -6 14 -10 48 -10 36 0 59 -5 67 -15 17 -21 3 -35 -36
-35 -36 0 -73 -15 -86 -34 -11 -16 -10 -23 8 -40 11 -12 33 -15 85 -14 l69 2
0 62 c0 81 -12 94 -90 94 -32 0 -62 -4 -65 -10z m123 -97 c-3 -26 -7 -28 -49
-31 -34 -2 -48 1 -52 12 -8 21 30 46 71 46 30 0 33 -2 30 -27z"/>
<path d="M2015 2043 c0 -101 2 -113 18 -113 13 0 17 8 17 38 l0 37 50 -3 c44
-4 53 -1 80 26 37 37 39 74 5 108 -22 22 -31 24 -98 22 l-73 -2 1 -113z m139
78 c41 -45 -10 -120 -73 -106 -30 6 -31 8 -31 59 0 29 3 56 7 59 14 15 80 7
97 -12z"/>
<path d="M2230 2080 c0 -64 3 -80 15 -80 12 0 15 16 15 80 0 64 -3 80 -15 80
-12 0 -15 -16 -15 -80z"/>
<path d="M2370 2150 c0 -5 26 -10 58 -12 49 -3 57 -6 57 -23 0 -16 -8 -21 -46
-25 -52 -6 -79 -23 -79 -50 0 -30 24 -40 94 -38 l66 3 0 67 c0 56 -3 69 -19
78 -25 13 -131 13 -131 0z m118 -97 c-3 -25 -7 -28 -46 -31 -32 -2 -44 1 -49
14 -9 23 22 44 65 44 30 0 33 -2 30 -27z"/>
<path d="M2554 2138 c3 -13 6 -49 6 -80 0 -45 3 -58 15 -58 12 0 15 13 15 60
0 65 12 80 64 80 14 0 26 5 26 10 0 13 -46 13 -70 0 -13 -7 -21 -7 -25 0 -3 5
-13 10 -22 10 -11 0 -14 -6 -9 -22z"/>
<path d="M2964 2144 c3 -9 6 -45 6 -80 0 -50 3 -64 15 -64 11 0 15 13 15 54 0
63 16 86 61 86 16 0 29 5 29 10 0 13 -46 13 -71 0 -13 -7 -19 -7 -19 0 0 5 -9
10 -21 10 -15 0 -19 -4 -15 -16z"/>
<path d="M3115 2135 c-40 -39 -32 -96 16 -120 32 -17 125 -20 134 -5 4 6 -15
10 -49 10 -43 0 -61 5 -76 20 -33 33 -24 40 55 40 73 0 75 1 75 24 0 56 -109
78 -155 31z m117 -12 c16 -20 -5 -33 -58 -33 -48 0 -57 6 -44 31 16 30 78 31
102 2z"/>
<path d="M3308 2149 c-21 -12 -24 -44 -6 -56 7 -4 31 -15 53 -23 58 -23 53
-44 -12 -48 -63 -4 -72 -22 -10 -22 60 0 85 9 93 32 8 26 -10 44 -61 61 -22 8
-41 21 -43 30 -3 14 5 17 47 17 28 0 51 5 51 10 0 13 -90 12 -112 -1z"/>
<path d="M3454 2043 c1 -101 3 -113 19 -113 13 0 17 8 17 38 l0 37 45 -3 c96
-8 147 78 82 138 -17 17 -33 20 -92 18 l-71 -2 0 -113z m140 78 c41 -45 -10
-120 -73 -106 -30 6 -31 8 -31 59 0 29 3 56 7 59 14 15 80 7 97 -12z"/>
<path d="M3689 2131 c-58 -59 -21 -131 68 -131 55 0 89 19 104 58 32 85 -102
142 -172 73z m124 -9 c38 -33 6 -112 -46 -112 -12 0 -33 7 -45 16 -33 23 -28
93 8 111 28 14 56 9 83 -15z"/>
<path d="M3900 2142 c-27 -22 -19 -46 23 -62 51 -19 62 -26 65 -44 3 -13 -6
-16 -52 -16 -31 0 -56 -4 -56 -10 0 -13 96 -13 121 0 11 6 19 21 19 35 0 19
-9 27 -52 43 -67 25 -70 46 -5 50 59 4 62 22 3 22 -27 0 -52 -7 -66 -18z"/>
<path d="M4471 2114 c0 -11 3 -14 6 -6 3 7 2 16 -1 19 -3 4 -6 -2 -5 -13z"/>
<path d="M4461 2074 c0 -11 3 -14 6 -6 3 7 2 16 -1 19 -3 4 -6 -2 -5 -13z"/>
<path d="M4441 2013 c-1 -6 -4 -20 -7 -30 -5 -17 -5 -17 6 0 6 10 9 23 6 30
-3 9 -5 9 -5 0z"/>
<path d="M4401 1899 c-6 -18 -9 -34 -7 -36 2 -2 9 10 15 28 6 18 9 34 7 36 -2
2 -9 -10 -15 -28z"/>
<path d="M4362 1805 c-30 -62 -27 -71 4 -12 14 27 24 51 22 53 -3 2 -14 -17
-26 -41z"/>
<path d="M4116 1781 c5 -5 20 -12 34 -15 24 -7 24 -6 6 8 -21 17 -57 23 -40 7z"/>
<path d="M4210 1740 c0 -5 5 -10 10 -10 6 0 10 5 10 10 0 6 -4 10 -10 10 -5 0
-10 -4 -10 -10z"/>
<path d="M4115 1714 c-21 -21 -16 -63 10 -80 30 -19 65 6 65 46 0 44 -44 64
-75 34z m53 -13 c8 -4 12 -19 10 -32 -4 -29 -45 -34 -61 -8 -22 35 15 63 51
40z"/>
<path d="M4285 1650 c-9 -16 -13 -30 -11 -30 3 0 12 14 21 30 9 17 13 30 11
30 -3 0 -12 -13 -21 -30z"/>
<path d="M4022 1630 c-7 -11 -12 -25 -12 -32 0 -7 7 0 15 16 18 33 15 45 -3
16z"/>
<path d="M4047 1602 c-10 -10 -17 -23 -17 -28 0 -4 7 2 16 14 17 24 50 31 41
8 -4 -10 0 -12 14 -9 14 4 19 0 19 -15 0 -30 -21 -38 -37 -16 -14 19 -15 19
-11 -1 5 -28 40 -25 55 5 11 22 10 27 -10 42 -29 23 -50 22 -70 0z"/>
<path d="M4254 1598 c-4 -7 -14 -24 -22 -38 -14 -24 -13 -24 3 -5 20 24 37 55
31 55 -3 0 -8 -6 -12 -12z"/>
<path d="M4002 1538 c-16 -16 -15 -53 1 -67 8 -6 29 -10 49 -9 19 1 40 -2 46
-6 7 -4 12 -2 12 3 0 6 -7 11 -16 11 -10 0 -14 6 -10 15 7 19 -1 19 -21 0 -32
-32 -79 7 -55 45 14 23 12 26 -6 8z"/>
<path d="M4175 1479 c-20 -28 -32 -48 -26 -45 12 8 74 96 67 96 -2 0 -21 -23
-41 -51z"/>
<path d="M3927 1452 c-10 -10 -17 -23 -17 -28 0 -5 5 -1 11 9 5 9 19 17 30 17
17 0 18 -3 8 -22 -11 -21 -11 -22 4 -9 14 11 20 11 32 1 9 -7 18 -11 21 -8 5
6 -53 58 -65 58 -4 0 -15 -8 -24 -18z"/>
<path d="M4114 1398 l-19 -23 23 19 c12 11 22 21 22 23 0 8 -8 2 -26 -19z"/>
<path d="M3873 1386 l-20 -23 33 -27 c19 -15 34 -22 34 -17 0 6 -9 15 -20 21
-22 12 -26 40 -8 58 7 7 10 12 7 12 -3 0 -15 -11 -26 -24z"/>
<path d="M3946 1386 c8 -21 28 -20 45 2 13 15 12 16 -3 3 -15 -11 -21 -11 -33
-1 -13 11 -14 10 -9 -4z"/>
<path d="M4031 1303 c-34 -38 -96 -98 -138 -135 -43 -36 -89 -76 -103 -88
l-25 -22 25 16 c72 46 331 296 306 296 -2 0 -32 -30 -65 -67z"/>
<path d="M3845 1310 c16 -16 33 -30 39 -30 5 0 -3 14 -19 30 -16 17 -33 30
-39 30 -5 0 3 -13 19 -30z"/>
<path d="M3747 1277 c-13 -21 -12 -25 29 -72 24 -27 44 -45 44 -39 0 6 -16 29
-36 52 -30 35 -34 45 -24 57 31 38 81 -3 60 -47 -11 -22 -10 -22 4 -4 19 23
19 31 6 57 -15 27 -64 25 -83 -4z"/>
<path d="M3680 1225 c-21 -25 -4 -48 30 -40 23 5 30 3 30 -9 0 -8 -8 -20 -17
-25 -10 -6 -13 -11 -7 -11 16 0 34 22 34 43 0 16 -6 18 -30 15 -37 -6 -50 10
-25 29 11 7 14 13 8 13 -6 0 -16 -7 -23 -15z"/>
<path d="M1777 1183 c-12 -12 -7 -50 8 -63 35 -29 8 -61 -31 -35 -28 18 -43
15 -20 -4 8 -7 27 -13 43 -14 22 -2 29 3 31 20 2 12 -4 34 -14 48 -22 33 -7
52 27 35 23 -11 23 -10 5 4 -21 17 -38 20 -49 9z"/>
<path d="M3595 1170 c-4 -7 2 -9 17 -5 18 4 27 -1 41 -26 10 -17 20 -29 23
-27 2 3 -3 19 -13 37 -18 31 -55 42 -68 21z"/>
<path d="M3533 1095 c17 -31 33 -52 35 -47 3 11 -50 102 -60 102 -4 0 7 -25
25 -55z"/>
<path d="M3586 1110 c15 -22 29 -39 31 -36 8 7 -32 76 -45 76 -7 0 -2 -15 14
-40z"/>
<path d="M1845 1076 c-16 -29 -17 -37 -6 -50 8 -9 19 -16 25 -15 7 0 6 2 -1 6
-16 6 -17 37 -2 65 6 11 9 22 6 24 -2 2 -12 -11 -22 -30z"/>
<path d="M3413 1070 c-32 -13 -29 -17 9 -12 24 4 30 1 26 -9 -3 -8 3 -23 13
-33 11 -11 19 -15 19 -10 0 9 -38 75 -42 73 -2 0 -13 -4 -25 -9z"/>
<path d="M1902 1035 c-12 -19 -17 -35 -12 -35 11 0 44 59 37 66 -2 3 -14 -11
-25 -31z"/>
<path d="M3739 1043 c-13 -16 -12 -17 4 -4 16 13 21 21 13 21 -2 0 -10 -8 -17
-17z"/>
<path d="M1998 1038 c17 -17 15 -28 -5 -28 -14 0 -15 -2 -4 -9 15 -10 7 -31
-12 -31 -7 0 -19 5 -27 10 -13 9 -12 13 5 26 20 16 20 16 0 12 -34 -6 -30 -37
7 -52 33 -14 33 -14 47 20 14 36 10 64 -11 64 -9 0 -9 -3 0 -12z"/>
<path d="M3318 1029 c-35 -20 -15 -49 33 -49 26 0 24 -19 -3 -30 -14 -5 -17
-9 -7 -9 18 -1 39 18 39 36 0 7 -10 13 -22 13 -24 0 -56 16 -48 23 3 2 14 9
25 15 11 6 16 11 10 11 -5 0 -18 -4 -27 -10z"/>
<path d="M2097 978 c-18 -58 -16 -64 28 -72 l30 -6 -28 11 c-21 8 -27 17 -25
33 2 17 9 21 33 19 27 -2 28 -2 8 7 -14 5 -23 18 -23 30 0 18 4 20 38 15 27
-4 32 -3 17 4 -45 22 -60 14 -78 -41z"/>
<path d="M3410 1014 c-11 -12 -10 -18 3 -32 14 -13 19 -14 29 -3 11 10 10 11
-3 6 -22 -8 -34 12 -19 30 7 8 10 15 7 15 -2 0 -10 -7 -17 -16z"/>
<path d="M3689 1009 l-24 -20 28 17 c15 9 27 18 27 20 0 8 -8 4 -31 -17z"/>
<path d="M3224 985 c-8 -21 4 -35 31 -35 31 0 40 -16 18 -29 -10 -6 -13 -11
-7 -11 17 0 37 27 29 40 -3 5 -17 10 -30 10 -29 0 -43 19 -24 31 11 7 11 9 1
9 -7 0 -15 -7 -18 -15z"/>
<path d="M3634 974 c-18 -14 -18 -15 4 -4 12 6 22 13 22 15 0 8 -5 6 -26 -11z"/>
<path d="M2203 954 c-3 -8 4 -25 17 -39 21 -22 21 -24 3 -34 -20 -11 -14 -14
11 -5 22 8 20 27 -4 49 -28 25 -25 38 8 31 20 -5 23 -4 12 4 -22 14 -40 12
-47 -6z"/>
<path d="M2404 958 c-5 -7 -2 -9 8 -5 9 3 21 0 27 -6 9 -9 11 -8 6 6 -8 19
-30 23 -41 5z"/>
<path d="M3122 958 c-19 -19 -15 -66 7 -78 31 -16 37 -12 12 11 -29 27 -25 64
8 64 34 0 50 -29 32 -57 -13 -21 -13 -22 2 -9 18 14 21 38 11 65 -7 19 -55 21
-72 4z"/>
<path d="M3584 944 c-18 -14 -18 -15 4 -4 12 6 22 13 22 15 0 8 -5 6 -26 -11z"/>
<path d="M2293 934 c-3 -8 4 -25 16 -38 25 -27 15 -41 -22 -31 -17 5 -19 4 -7
-4 42 -29 81 8 42 40 -25 19 -28 35 -9 42 9 4 9 6 -1 6 -7 1 -15 -6 -19 -15z"/>
<path d="M3030 939 c-13 -9 -13 -10 1 -6 21 7 39 -11 39 -39 0 -13 5 -26 11
-30 14 -8 2 54 -13 74 -13 15 -19 15 -38 1z"/>
<path d="M2382 918 c-32 -32 -4 -89 45 -88 11 1 5 7 -16 15 -23 11 -31 20 -27
31 3 9 6 22 6 31 0 9 8 13 22 11 30 -4 34 -26 6 -31 -17 -3 -15 -5 10 -6 35
-1 40 9 16 33 -18 19 -45 21 -62 4z"/>
<path d="M2996 893 c7 -40 11 -49 19 -42 8 8 -7 79 -17 79 -5 0 -6 -17 -2 -37z"/>
<path d="M2481 870 c1 -46 3 -46 13 1 13 60 68 42 59 -19 -3 -28 -2 -33 6 -22
14 20 14 67 -1 76 -6 4 -27 8 -45 9 -33 1 -33 0 -32 -45z"/>
<path d="M2606 889 c-24 -34 5 -80 48 -78 21 1 21 1 1 6 -31 8 -45 23 -45 49
0 18 8 26 33 33 31 9 31 9 5 10 -17 1 -32 -7 -42 -20z"/>
<path d="M2697 868 c8 -59 13 -61 13 -5 0 26 -4 47 -9 47 -5 0 -7 -19 -4 -42z"/>
<path d="M2766 903 c25 -3 33 -10 37 -31 6 -33 1 -42 -23 -42 -26 0 -34 17
-13 29 10 6 14 10 8 11 -21 0 -38 -18 -32 -34 5 -12 17 -16 42 -14 31 2 35 5
35 29 0 48 -9 59 -49 57 -35 -1 -35 -1 -5 -5z"/>
<path d="M3400 855 c-14 -8 -20 -14 -15 -14 6 0 21 6 35 14 14 8 21 14 15 14
-5 0 -21 -6 -35 -14z"/>
<path d="M2904 826 c0 -13 4 -22 9 -19 10 6 9 43 -2 43 -5 0 -8 -11 -7 -24z"/>
<path d="M3270 805 c-19 -7 -28 -14 -20 -14 8 0 29 6 45 14 39 17 21 18 -25 0z"/>
<path d="M3120 760 c-20 -6 -21 -8 -5 -8 11 0 29 3 40 8 25 11 -1 11 -35 0z"/>
<path d="M2198 753 c6 -2 18 -2 25 0 6 3 1 5 -13 5 -14 0 -19 -2 -12 -5z"/>
<path d="M2248 743 c7 -3 16 -2 19 1 4 3 -2 6 -13 5 -11 0 -14 -3 -6 -6z"/>
<path d="M3068 743 c7 -3 16 -2 19 1 4 3 -2 6 -13 5 -11 0 -14 -3 -6 -6z"/>
<path d="M2288 733 c7 -3 16 -2 19 1 4 3 -2 6 -13 5 -11 0 -14 -3 -6 -6z"/>
<path d="M3028 733 c7 -3 16 -2 19 1 4 3 -2 6 -13 5 -11 0 -14 -3 -6 -6z"/>
<path d="M2338 723 c6 -2 18 -2 25 0 6 3 1 5 -13 5 -14 0 -19 -2 -12 -5z"/>
<path d="M2968 723 c7 -3 16 -2 19 1 4 3 -2 6 -13 5 -11 0 -14 -3 -6 -6z"/>
<path d="M2408 713 c6 -2 18 -2 25 0 6 3 1 5 -13 5 -14 0 -19 -2 -12 -5z"/>
<path d="M2898 713 c6 -2 18 -2 25 0 6 3 1 5 -13 5 -14 0 -19 -2 -12 -5z"/>
<path d="M2498 703 c18 -2 45 -2 60 0 15 2 0 4 -33 4 -33 0 -45 -2 -27 -4z"/>
<path d="M2778 703 c18 -2 45 -2 60 0 15 2 0 4 -33 4 -33 0 -45 -2 -27 -4z"/>
<path d="M2663 693 c9 -2 23 -2 30 0 6 3 -1 5 -18 5 -16 0 -22 -2 -12 -5z"/>
</g>
</svg>
